<svg width="648" height="648" viewBox="0 0 648 648" fill="none" xmlns="http://www.w3.org/2000/svg">
<path d="M126.916 490.741H81.3513V505.243H126.916V490.741Z" fill="#EBEBEB"/>
<path d="M154.284 321.596H108.719V336.098H154.284V321.596Z" fill="#EBEBEB"/>
<path d="M101.499 523.529C93.907 523.659 74.7651 523.983 67.4284 524.065L55.9355 524.12L55.3471 524.123L55.3445 523.529L55.2875 509.027L55.2849 508.378L55.9342 508.381L78.7166 508.469C84.3879 508.519 95.8264 508.64 101.499 508.72L101.814 508.724L101.807 509.027L101.499 523.529ZM101.499 523.529L101.192 509.027L101.499 509.334C95.8147 509.415 84.3983 509.537 78.7166 509.586L55.9342 509.674L56.5809 509.027L56.5239 523.529L55.9329 522.939L67.2224 522.994C74.445 523.077 94.0288 523.402 101.499 523.529Z" fill="#EBEBEB"/>
<path d="M359.31 266.661C351.718 266.791 332.576 267.115 325.239 267.196L313.746 267.252L313.158 267.255L313.155 266.661L313.098 252.159L313.096 251.508L313.745 251.511L336.527 251.599C342.199 251.65 353.637 251.771 359.31 251.85L359.623 251.854L359.617 252.159L359.31 266.661ZM359.31 266.661L359.003 252.159L359.31 252.466C353.626 252.546 342.209 252.668 336.527 252.717L313.745 252.806L314.392 252.159L314.335 266.661L313.744 266.07L325.033 266.126C332.257 266.21 351.84 266.535 359.31 266.661Z" fill="#EBEBEB"/>
<path d="M333.893 284.948C326.301 285.077 307.159 285.401 299.822 285.483L288.329 285.539L287.741 285.541L287.738 284.948L287.681 270.446L287.678 269.795L288.328 269.798L311.11 269.886C316.783 269.936 328.22 270.058 333.893 270.137L334.206 270.141L334.2 270.446L333.893 284.948ZM333.893 284.948L333.585 270.446L333.893 270.753C328.208 270.833 316.792 270.955 311.11 271.004L288.328 271.092L288.974 270.446L288.917 284.948L288.326 284.357L299.615 284.412C306.84 284.495 326.422 284.822 333.893 284.948Z" fill="#EBEBEB"/>
<path d="M308.576 252.159H263.012V266.661H308.576V252.159Z" fill="#EBEBEB"/>
<path d="M592.065 509.027H546.501V523.53H592.065V509.027Z" fill="#EBEBEB"/>
<path d="M566.649 61.1934H521.084V75.6956H566.649V61.1934Z" fill="#EBEBEB"/>
<path d="M592.066 93.9821C584.474 94.1117 565.332 94.4357 557.996 94.5174L546.503 94.5731L545.914 94.5757L545.912 93.9821L545.855 79.4799L545.852 78.8306L546.503 78.8332L569.285 78.9213C574.956 78.9718 586.395 79.0924 592.067 79.1727L592.381 79.1766L592.375 79.4812L592.066 93.9821ZM592.066 93.9821L591.759 79.4799L592.066 79.787C586.382 79.8674 574.965 79.9892 569.284 80.0384L546.501 80.1266L547.148 79.4799L547.091 93.9821L546.5 93.3911L557.788 93.4469C565.012 93.5298 584.595 93.8564 592.066 93.9821Z" fill="#EBEBEB"/>
<path d="M126.916 75.6955C119.324 75.8251 100.182 76.1491 92.8457 76.2307L81.3527 76.2865L80.7644 76.2891L80.7618 75.6955L80.7047 61.1932L80.7021 60.5439L81.3527 60.5465L104.135 60.6347C109.806 60.6852 121.245 60.8057 126.918 60.8861L127.232 60.89L127.226 61.1932L126.916 75.6955ZM126.916 75.6955L126.609 61.1932L126.916 61.5004C121.232 61.5807 109.815 61.7026 104.134 61.7518L81.3514 61.8399L81.9981 61.1932L81.9411 75.6955L81.3501 75.1045L92.6396 75.1602C99.8622 75.2445 119.446 75.5698 126.916 75.6955Z" fill="#EBEBEB"/>
<path d="M389.666 556.889C382.074 557.018 362.932 557.342 355.595 557.424L344.102 557.48L343.514 557.482L343.511 556.889L343.454 542.387L343.452 541.737L344.102 541.74L366.885 541.828C372.557 541.879 383.994 542 389.667 542.079L389.981 542.083L389.974 542.387L389.666 556.889ZM389.666 556.889L389.359 542.387L389.666 542.694C383.981 542.774 372.565 542.896 366.883 542.945L344.101 543.033L344.748 542.387L344.691 556.889L344.1 556.298L355.389 556.354C362.612 556.437 382.194 556.762 389.666 556.889Z" fill="#EBEBEB"/>
<path d="M141.645 155.142C138.374 177.517 119.097 194.688 95.8251 194.688C70.242 194.688 49.4866 173.948 49.4866 148.349C49.4866 122.766 70.242 102.026 95.8251 102.026V148.349L141.645 155.142Z" fill="#EBEBEB"/>
<path d="M151.581 138.915C151.581 141.227 151.408 143.491 151.079 145.707L105.259 138.915V92.5903C122.445 92.5903 137.462 101.962 145.464 115.878C149.365 122.67 151.581 130.549 151.581 138.915Z" fill="#DBDBDB"/>
<path d="M150.108 164.794H100.842V166.09H150.108V164.794Z" fill="#C7C7C7"/>
<path d="M153.561 169.543C151.299 169.543 149.459 167.704 149.459 165.442C149.459 163.181 151.299 161.342 153.561 161.342C155.822 161.342 157.661 163.181 157.661 165.442C157.662 167.704 155.822 169.543 153.561 169.543ZM153.561 162.638C152.014 162.638 150.755 163.896 150.755 165.442C150.755 166.988 152.013 168.247 153.561 168.247C155.107 168.247 156.365 166.988 156.365 165.442C156.366 163.895 155.108 162.638 153.561 162.638Z" fill="#C7C7C7"/>
<path d="M204.346 162.853H166.08V164.579H204.346V162.853Z" fill="#C7C7C7"/>
<path d="M187.742 166.306H166.08V168.032H187.742V166.306Z" fill="#C7C7C7"/>
<path d="M302.147 331.409H289.927V418.371H302.147V331.409Z" fill="#EBEBEB"/>
<path d="M323.151 352.459H310.931V418.371H323.151V352.459Z" fill="#EBEBEB"/>
<path d="M344.156 385.415H331.936V418.371H344.156V385.415Z" fill="#EBEBEB"/>
<path d="M365.16 366.59H352.94V418.371H365.16V366.59Z" fill="#EBEBEB"/>
<path d="M386.164 346.824H373.944V418.371H386.164V346.824Z" fill="#EBEBEB"/>
<path d="M407.168 335.199H394.948V418.371H407.168V335.199Z" fill="#EBEBEB"/>
<path d="M282.84 320.351L282.982 344.855L283.052 369.36L283.15 418.37L282.842 418.061C294.073 418.03 305.304 418.015 316.535 418.053L350.229 418.121L383.922 418.188L417.615 418.37L383.922 418.551L350.229 418.618L316.535 418.686C305.304 418.725 294.073 418.709 282.842 418.678L282.532 418.677V418.368L282.629 369.36L282.699 344.855L282.84 320.351Z" fill="#EBEBEB"/>
<path d="M280.145 325.266C281.043 324.994 281.942 324.932 282.84 324.92C283.739 324.929 284.638 324.993 285.536 325.266C284.638 325.541 283.739 325.603 282.84 325.612C281.942 325.601 281.043 325.539 280.145 325.266Z" fill="#EBEBEB"/>
<path d="M280.145 332.714C281.043 332.442 281.942 332.38 282.84 332.368C283.739 332.379 284.638 332.441 285.536 332.714C284.638 332.989 283.739 333.051 282.84 333.06C281.942 333.05 281.043 332.988 280.145 332.714Z" fill="#EBEBEB"/>
<path d="M280.145 340.165C281.043 339.893 281.942 339.831 282.84 339.819C283.739 339.829 284.638 339.891 285.536 340.165C284.638 340.44 283.739 340.502 282.84 340.511C281.942 340.499 281.043 340.437 280.145 340.165Z" fill="#EBEBEB"/>
<path d="M280.145 347.615C281.043 347.342 281.942 347.279 282.84 347.269C283.739 347.278 284.638 347.341 285.536 347.615C284.638 347.888 283.739 347.95 282.84 347.961C281.942 347.949 281.043 347.887 280.145 347.615Z" fill="#EBEBEB"/>
<path d="M280.145 355.064C281.043 354.792 281.942 354.729 282.84 354.718C283.739 354.728 284.638 354.79 285.536 355.064C284.638 355.337 283.739 355.401 282.84 355.41C281.942 355.398 281.043 355.336 280.145 355.064Z" fill="#EBEBEB"/>
<path d="M280.145 362.514C281.043 362.241 281.942 362.178 282.84 362.167C283.739 362.178 284.638 362.24 285.536 362.514C284.638 362.787 283.739 362.85 282.84 362.86C281.942 362.848 281.043 362.786 280.145 362.514Z" fill="#EBEBEB"/>
<path d="M280.145 369.963C281.043 369.691 281.942 369.627 282.84 369.617C283.739 369.626 284.638 369.689 285.536 369.963C284.638 370.236 283.739 370.3 282.84 370.309C281.942 370.298 281.043 370.235 280.145 369.963Z" fill="#EBEBEB"/>
<path d="M280.145 377.412C281.043 377.14 281.942 377.076 282.84 377.066C283.739 377.076 284.638 377.138 285.536 377.412C284.638 377.685 283.739 377.749 282.84 377.758C281.942 377.746 281.043 377.684 280.145 377.412Z" fill="#EBEBEB"/>
<path d="M280.145 384.862C281.043 384.589 281.942 384.527 282.84 384.516C283.739 384.526 284.638 384.588 285.536 384.862C284.638 385.135 283.739 385.199 282.84 385.208C281.942 385.197 281.043 385.134 280.145 384.862Z" fill="#EBEBEB"/>
<path d="M280.145 392.311C281.043 392.039 281.942 391.975 282.84 391.965C283.739 391.974 284.638 392.037 285.536 392.311C284.638 392.584 283.739 392.647 282.84 392.657C281.942 392.647 281.043 392.583 280.145 392.311Z" fill="#EBEBEB"/>
<path d="M280.145 399.761C281.043 399.488 281.942 399.425 282.84 399.415C283.739 399.425 284.638 399.487 285.536 399.761C284.638 400.034 283.739 400.096 282.84 400.107C281.942 400.096 281.043 400.034 280.145 399.761Z" fill="#EBEBEB"/>
<path d="M280.145 407.21C281.043 406.938 281.942 406.874 282.84 406.864C283.739 406.873 284.638 406.936 285.536 407.21C284.638 407.483 283.739 407.547 282.84 407.556C281.942 407.545 281.043 407.482 280.145 407.21Z" fill="#EBEBEB"/>
<path d="M53.771 586.768C226.897 585.975 421.104 585.968 594.229 586.768C421.103 587.566 226.896 587.561 53.771 586.768Z" fill="#263238"/>
<path d="M577.965 54.8091H365.583C353.725 54.8091 344.101 64.5952 344.101 76.6933V513.883C344.101 525.956 353.724 535.768 365.583 535.768H577.967C589.826 535.768 599.474 525.957 599.474 513.883V76.692C599.472 64.5952 589.825 54.8091 577.965 54.8091ZM586.03 500.366C586.03 511.873 577.412 521.183 566.785 521.183H376.789C366.135 521.183 357.517 511.873 357.517 500.366V93.2627C357.517 69.8207 366.135 68.6776 376.789 68.6776H414.853C417.064 68.6776 418.874 71.1905 418.874 74.3061V75.6501C418.874 82.9491 422.868 82.9738 427.768 82.9738H515.781C520.73 82.9738 524.7 82.9491 524.7 75.6501V74.3061C524.7 71.1905 526.483 68.6776 528.733 68.6776H566.785C577.413 68.6776 586.03 71.7932 586.03 93.2627V500.366Z" fill="#263238"/>
<path d="M586.03 93.2629V500.366C586.03 511.874 577.412 521.183 566.785 521.183H376.789C366.135 521.183 357.517 511.874 357.517 500.366V93.2629C357.517 69.8208 366.135 68.6777 376.789 68.6777H414.853C417.064 68.6777 418.874 71.1907 418.874 74.3063V75.6502C418.874 82.9493 422.868 82.9739 427.768 82.9739H515.781C520.73 82.9739 524.7 82.9493 524.7 75.6502V74.3063C524.7 71.1907 526.483 68.6777 528.733 68.6777H566.785C577.413 68.6777 586.03 71.7933 586.03 93.2629Z" fill="white"/>
<path d="M408.281 77.8212C408.158 77.943 408.036 78.0648 407.913 78.1866C407.843 78.2566 407.775 78.3253 407.705 78.3953C406.717 77.4362 405.54 76.9256 404.164 76.9256C402.786 76.9256 401.611 77.4349 400.616 78.3992C400.549 78.3305 400.485 78.2605 400.417 78.1918C400.297 78.07 400.175 77.9482 400.054 77.8263C400.052 77.8237 400.047 77.8224 400.043 77.8199C400.043 77.8173 400.043 77.8134 400.043 77.8108C400.052 77.803 400.061 77.7965 400.07 77.7887C400.224 77.6514 400.376 77.5088 400.535 77.3779C400.866 77.1058 401.227 76.8815 401.611 76.6923C402.065 76.4694 402.539 76.3048 403.036 76.2128C403.272 76.17 403.511 76.148 403.748 76.1182C403.828 76.1078 404.356 76.1065 404.371 76.1078C404.533 76.1195 404.695 76.1273 404.857 76.1441C405.306 76.1921 405.741 76.3009 406.165 76.4565C406.472 76.5692 406.766 76.7079 407.05 76.8699C407.35 77.0423 407.632 77.2367 407.894 77.4609C408.026 77.5736 408.153 77.6941 408.283 77.8108C408.281 77.816 408.281 77.8186 408.281 77.8212Z" fill="#C7C7C7"/>
<path d="M401.782 79.5514C401.588 79.3583 401.397 79.1691 401.201 78.9747C401.864 78.3254 402.646 77.912 403.565 77.7876C404.94 77.601 406.121 78.0196 407.122 78.9657C406.925 79.1626 406.731 79.3532 406.538 79.5463C405.881 78.9073 405.089 78.5626 404.161 78.5639C403.235 78.5652 402.444 78.9112 401.782 79.5514Z" fill="#C7C7C7"/>
<path d="M405.956 80.1319C405.765 80.3237 405.573 80.5155 405.378 80.7099C405.043 80.3846 404.637 80.2045 404.16 80.2058C403.685 80.2071 403.279 80.3846 402.942 80.7138C402.749 80.5207 402.557 80.3289 402.365 80.1371C403.284 79.1716 404.939 79.0951 405.956 80.1319Z" fill="#C7C7C7"/>
<path d="M404.683 81.2347C404.683 81.5224 404.449 81.757 404.16 81.757C403.871 81.757 403.638 81.5224 403.638 81.2347C403.638 80.947 403.871 80.7124 404.16 80.7124C404.449 80.7124 404.683 80.9457 404.683 81.2347Z" fill="#C7C7C7"/>
<path d="M372.422 78.9332C372.422 78.0972 373.1 77.4194 373.936 77.4194C374.772 77.4194 375.451 78.0972 375.451 78.9332C375.451 79.7704 374.773 80.4482 373.936 80.4482C373.1 80.4469 372.422 79.7691 372.422 78.9332Z" fill="#C7C7C7"/>
<path d="M377.193 78.9332C377.193 78.0972 377.871 77.4194 378.707 77.4194C379.543 77.4194 380.222 78.0972 380.222 78.9332C380.222 79.7704 379.544 80.4482 378.707 80.4482C377.871 80.4469 377.193 79.7691 377.193 78.9332Z" fill="#C7C7C7"/>
<path d="M381.964 78.9332C381.964 78.0972 382.641 77.4194 383.479 77.4194C384.315 77.4194 384.992 78.0972 384.992 78.9332C384.992 79.7704 384.315 80.4482 383.479 80.4482C382.641 80.4469 381.964 79.7691 381.964 78.9332Z" fill="#C7C7C7"/>
<path d="M386.733 78.9332C386.733 78.0972 387.41 77.4194 388.246 77.4194C389.082 77.4194 389.76 78.0972 389.76 78.9332C389.76 79.7704 389.082 80.4482 388.246 80.4482C387.41 80.4469 386.733 79.7691 386.733 78.9332Z" fill="#C7C7C7"/>
<path d="M391.503 78.9332C391.503 78.0972 392.181 77.4194 393.018 77.4194C393.854 77.4194 394.532 78.0972 394.532 78.9332C394.532 79.7704 393.854 80.4482 393.018 80.4482C392.181 80.4469 391.503 79.7691 391.503 78.9332Z" fill="#C7C7C7"/>
<path d="M568.893 82.2393H556.564V76.5278H568.893V82.2393ZM557.193 81.6107H568.265V77.1564H557.193V81.6107Z" fill="#C7C7C7"/>
<path d="M565.534 77.4985H557.587V81.2699H565.534V77.4985Z" fill="#C7C7C7"/>
<path d="M569.996 77.8564H568.9V80.9111H569.996V77.8564Z" fill="#C7C7C7"/>
<path d="M483.785 73.8578H459.778C458.959 73.8578 458.295 73.1943 458.295 72.3752C458.295 71.5561 458.959 70.8926 459.778 70.8926H483.785C484.604 70.8926 485.268 71.5561 485.268 72.3752C485.269 73.1943 484.606 73.8578 483.785 73.8578Z" fill="white"/>
<path d="M387.23 497.227H386.113V502.361H384.024V499.744H380.327V502.361H378.238V497.227H377.12L382.175 492.003L387.23 497.227Z" fill="#EBEBEB"/>
<path d="M568.252 492.003H556.067V493.745H568.252V492.003Z" fill="#EBEBEB"/>
<path d="M568.252 496.311H556.067V498.053H568.252V496.311Z" fill="#EBEBEB"/>
<path d="M568.252 500.619H556.067V502.36H568.252V500.619Z" fill="#EBEBEB"/>
<path d="M476.268 497.361L472.803 501.058L469.34 497.361L469.95 496.787L472.803 499.832L475.657 496.787L476.268 497.361Z" fill="#EBEBEB"/>
<path d="M472.804 504.879C469.335 504.879 466.511 502.055 466.511 498.585C466.511 495.115 469.335 492.292 472.804 492.292C476.275 492.292 479.098 495.115 479.098 498.585C479.098 502.055 476.273 504.879 472.804 504.879ZM472.804 493.123C469.792 493.123 467.341 495.573 467.341 498.585C467.341 501.597 469.792 504.048 472.804 504.048C475.816 504.048 478.267 501.597 478.267 498.585C478.267 495.573 475.816 493.123 472.804 493.123Z" fill="#EBEBEB"/>
<path d="M573.935 99.021H369.613V158.663H573.935V99.021Z" fill="#FFC727"/>
<path d="M381.246 118.176L374.49 111.845L381.246 105.515L382.294 106.632L376.731 111.845L382.294 117.06L381.246 118.176Z" fill="white"/>
<path d="M569.084 107.902C569.084 108.636 568.489 109.232 567.755 109.232C567.02 109.232 566.425 108.637 566.425 107.902C566.425 107.167 567.02 106.574 567.755 106.574C568.489 106.574 569.084 107.169 569.084 107.902Z" fill="white"/>
<path d="M569.084 112.63C569.084 113.365 568.489 113.96 567.755 113.96C567.02 113.96 566.425 113.365 566.425 112.63C566.425 111.897 567.02 111.302 567.755 111.302C568.489 111.302 569.084 111.897 569.084 112.63Z" fill="white"/>
<path d="M569.084 117.358C569.084 118.092 568.489 118.687 567.755 118.687C567.02 118.687 566.425 118.092 566.425 117.358C566.425 116.624 567.02 116.028 567.755 116.028C568.489 116.028 569.084 116.623 569.084 117.358Z" fill="white"/>
<path d="M391.503 111.846C415.015 110.975 438.696 110.975 462.213 111.846C438.693 112.717 415.017 112.717 391.503 111.846Z" fill="white"/>
<path d="M391.503 118.176C407.379 117.752 424.85 117.748 440.726 118.176C424.85 118.603 407.379 118.6 391.503 118.176Z" fill="white"/>
<path d="M414.895 139.957C451.335 139.56 492.216 139.557 528.655 139.957C492.214 140.356 451.333 140.353 414.895 139.957Z" fill="white"/>
<path d="M378.925 207.653C411.174 207.425 443.424 207.484 475.675 207.388C507.925 207.482 540.176 207.424 572.425 207.653C540.176 207.883 507.925 207.826 475.675 207.919C443.424 207.824 411.174 207.881 378.925 207.653Z" fill="#455A64"/>
<path d="M378.925 229.451C411.174 229.221 443.424 229.28 475.675 229.185C507.925 229.28 540.176 229.221 572.425 229.451C540.176 229.68 507.925 229.622 475.675 229.716C443.424 229.622 411.174 229.679 378.925 229.451Z" fill="#455A64"/>
<path d="M378.925 251.248C411.174 251.02 443.424 251.077 475.675 250.982C507.925 251.076 540.176 251.019 572.425 251.248C540.176 251.477 507.925 251.419 475.675 251.514C443.424 251.418 411.174 251.476 378.925 251.248Z" fill="#455A64"/>
<path d="M378.925 273.044C411.174 272.816 443.424 272.873 475.675 272.778C507.925 272.872 540.176 272.815 572.425 273.044C540.176 273.273 507.925 273.215 475.675 273.31C443.424 273.215 411.174 273.273 378.925 273.044Z" fill="#455A64"/>
<path d="M378.925 294.842C411.174 294.614 443.424 294.671 475.675 294.576C507.925 294.669 540.176 294.612 572.425 294.842C540.176 295.071 507.925 295.013 475.675 295.108C443.424 295.013 411.174 295.071 378.925 294.842Z" fill="#455A64"/>
<path d="M417.884 193.481C418.168 213.848 418.095 234.215 418.214 254.581C418.098 274.948 418.169 295.315 417.884 315.681C417.599 295.315 417.67 274.948 417.553 254.581C417.671 234.215 417.6 213.848 417.884 193.481Z" fill="#455A64"/>
<path d="M451.345 193.481C451.629 213.848 451.558 234.215 451.676 254.581C451.559 274.948 451.63 295.315 451.345 315.681C451.06 295.315 451.131 274.948 451.015 254.581C451.134 234.215 451.061 213.848 451.345 193.481Z" fill="#455A64"/>
<path d="M484.808 193.481C485.092 213.848 485.019 234.215 485.138 254.581C485.022 274.948 485.093 295.315 484.808 315.681C484.523 295.315 484.595 274.948 484.477 254.581C484.595 234.215 484.523 213.848 484.808 193.481Z" fill="#455A64"/>
<path d="M518.269 193.481C518.553 213.848 518.482 234.215 518.6 254.581C518.483 274.948 518.554 295.315 518.269 315.681C517.984 295.315 518.057 274.948 517.939 254.581C518.058 234.215 517.985 213.848 518.269 193.481Z" fill="#455A64"/>
<path d="M551.732 193.481C552.016 213.848 551.943 234.215 552.062 254.581C551.946 274.948 552.017 295.315 551.732 315.681C551.447 295.315 551.518 274.948 551.401 254.581C551.519 234.215 551.447 213.848 551.732 193.481Z" fill="#455A64"/>
<path opacity="0.5" d="M383.799 279.031C389.705 279.031 393.227 256.891 401.593 256.891C409.959 256.891 410.839 273.045 417.884 273.045C424.927 273.045 424.708 244.669 434.174 244.669C443.64 244.669 441.438 256.183 451.345 256.183C461.252 256.183 457.509 229.452 467.856 229.452C478.202 229.452 474.02 266.28 484.807 266.28C491.631 266.28 494.273 254.584 502.418 254.584C507.812 254.584 510.992 260.435 518.042 260.435C525.203 260.435 526.634 237.94 535.44 237.94C544.245 237.94 545.252 251.25 551.731 251.25C558.209 251.25 560.536 229.453 572.424 229.453V315.684H383.799V279.031Z" fill="#FFC727"/>
<path opacity="0.3" d="M383.799 279.031C389.705 279.031 393.227 256.891 401.593 256.891C409.959 256.891 410.839 273.045 417.884 273.045C424.927 273.045 424.708 244.669 434.174 244.669C443.64 244.669 441.438 256.183 451.345 256.183C461.252 256.183 457.509 229.452 467.856 229.452C478.202 229.452 474.02 266.28 484.807 266.28C491.631 266.28 494.273 254.584 502.418 254.584C507.812 254.584 510.992 260.435 518.042 260.435C525.203 260.435 526.634 237.94 535.44 237.94C544.245 237.94 545.252 251.25 551.731 251.25C558.209 251.25 560.536 229.453 572.424 229.453V315.684H383.799V279.031Z" fill="#FFC727"/>
<path d="M383.799 280.097V277.966C385.586 277.966 388.05 272.794 389.85 269.017C392.941 262.532 396.137 255.824 401.593 255.824C406.83 255.824 409.431 260.736 411.728 265.07C413.525 268.466 415.386 271.979 417.882 271.979C420.086 271.979 421.995 265.164 423.388 260.188C425.671 252.033 428.033 243.601 434.174 243.601C439.656 243.601 441.808 246.911 443.704 249.833C445.548 252.668 447.138 255.115 451.345 255.115C455.151 255.115 456.642 248.87 458.084 242.83C459.781 235.728 461.534 228.384 467.857 228.384C474.129 228.384 475.732 237.635 477.431 247.429C478.805 255.352 480.51 265.212 484.809 265.212C487.376 265.212 489.477 262.782 491.699 260.208C494.406 257.071 497.476 253.515 502.42 253.515C505.392 253.515 507.711 254.966 509.957 256.372C512.308 257.844 514.74 259.366 518.045 259.366C520.489 259.366 522.718 254.016 524.509 249.716C527.139 243.401 529.859 236.871 535.442 236.871C540.987 236.871 543.717 241.118 546.128 244.865C547.887 247.598 549.547 250.183 551.734 250.183C553.597 250.183 555.707 246.042 557.565 242.39C560.743 236.151 564.7 228.385 572.426 228.385V230.516C566.476 230.516 563.045 237.254 560.016 243.197C557.423 248.29 555.371 252.313 551.733 252.313C547.935 252.313 545.914 249.172 543.776 245.845C541.611 242.482 539.374 239.003 535.441 239.003C531.764 239.003 529.242 245.056 527.016 250.395C524.534 256.353 522.39 261.498 518.042 261.498C513.828 261.498 510.905 259.669 508.328 258.054C506.264 256.762 504.482 255.646 502.418 255.646C498.86 255.646 496.323 258.584 493.871 261.424C491.36 264.334 488.762 267.344 484.806 267.344C478.205 267.344 476.555 257.815 474.804 247.724C473.477 240.058 471.822 230.516 467.855 230.516C463.719 230.516 462.106 237.273 460.681 243.235C458.962 250.44 457.338 257.247 451.344 257.247C445.532 257.247 443.315 253.833 441.357 250.821C439.583 248.092 438.052 245.735 434.173 245.735C430.149 245.735 427.832 254.01 425.971 260.659C423.866 268.175 422.203 274.111 417.882 274.111C413.637 274.111 411.527 270.125 409.291 265.906C407.22 261.998 405.082 257.956 401.593 257.956C397.958 257.956 394.833 264.512 392.323 269.781C389.576 275.544 387.407 280.097 383.799 280.097Z" fill="#FFC727"/>
<path opacity="0.5" d="M484.808 266.282V315.679H451.345V256.187C461.246 256.187 457.517 229.451 467.861 229.451C478.207 229.449 474.018 266.282 484.808 266.282Z" fill="#FFC727"/>
<path d="M467.848 234.055C470.774 234.055 473.145 231.684 473.145 228.759C473.145 225.833 470.774 223.462 467.848 223.462C464.923 223.462 462.552 225.833 462.552 228.759C462.552 231.684 464.923 234.055 467.848 234.055Z" fill="#263238"/>
<path d="M470.877 228.759C470.877 230.432 469.521 231.787 467.848 231.787C466.176 231.787 464.82 230.432 464.82 228.759C464.82 227.087 466.175 225.73 467.848 225.73C469.521 225.73 470.877 227.087 470.877 228.759Z" fill="#FFC727"/>
<path d="M477.388 207.153H458.157V217.882H477.388V207.153Z" fill="#FFC727"/>
<path d="M465.242 217.884H470.303L467.772 221.527L465.242 217.884Z" fill="#FFC727"/>
<path d="M461.757 211.112C465.817 210.894 469.879 210.893 473.939 211.112C469.879 211.332 465.817 211.33 461.757 211.112Z" fill="white"/>
<path d="M461.757 213.188C465.817 212.97 469.879 212.969 473.939 213.188C469.879 213.407 465.817 213.406 461.757 213.188Z" fill="white"/>
<path d="M383.799 194.807C384.013 214.953 384.198 235.098 384.216 255.245L384.417 315.681L383.799 315.184L478.111 315.311L525.268 315.409L572.424 315.681L525.268 315.955L478.111 316.053L383.799 316.179L383.178 316.18L383.179 315.681L383.38 255.245C383.4 235.098 383.585 214.952 383.799 194.807Z" fill="#455A64"/>
<path d="M393.897 324.722C398.372 324.057 402.86 324.05 407.335 324.722C402.86 325.392 398.372 325.387 393.897 324.722Z" fill="#DBDBDB"/>
<path d="M369.613 207.653C371.645 206.988 373.706 206.983 375.738 207.653C373.706 208.323 371.646 208.318 369.613 207.653Z" fill="#DBDBDB"/>
<path d="M369.613 229.45C371.645 228.785 373.706 228.78 375.738 229.45C373.706 230.12 371.646 230.115 369.613 229.45Z" fill="#DBDBDB"/>
<path d="M369.613 251.248C371.645 250.583 373.706 250.578 375.738 251.248C373.706 251.918 371.646 251.913 369.613 251.248Z" fill="#DBDBDB"/>
<path d="M369.613 273.045C371.645 272.38 373.706 272.375 375.738 273.045C373.706 273.715 371.646 273.71 369.613 273.045Z" fill="#DBDBDB"/>
<path d="M369.613 294.843C371.645 294.178 373.706 294.173 375.738 294.843C373.706 295.513 371.646 295.508 369.613 294.843Z" fill="#DBDBDB"/>
<path d="M426.858 324.722C431.333 324.057 435.822 324.05 440.297 324.722C435.822 325.392 431.333 325.387 426.858 324.722Z" fill="#DBDBDB"/>
<path d="M459.82 324.722C464.295 324.057 468.783 324.05 473.258 324.722C468.783 325.392 464.295 325.387 459.82 324.722Z" fill="#DBDBDB"/>
<path d="M492.779 324.722C497.254 324.057 501.742 324.05 506.218 324.722C501.744 325.392 497.254 325.387 492.779 324.722Z" fill="#DBDBDB"/>
<path d="M525.741 324.722C530.216 324.057 534.704 324.05 539.179 324.722C534.704 325.392 530.216 325.387 525.741 324.722Z" fill="#DBDBDB"/>
<path d="M558.702 324.722C563.177 324.057 567.665 324.05 572.14 324.722C567.665 325.392 563.177 325.387 558.702 324.722Z" fill="#DBDBDB"/>
<path d="M369.789 173.857C388.761 172.973 407.882 172.973 426.858 173.857C407.881 174.742 388.762 174.741 369.789 173.857Z" fill="#DBDBDB"/>
<path d="M369.789 179.855C381.947 178.971 394.239 178.971 406.399 179.855C394.238 180.739 381.947 180.738 369.789 179.855Z" fill="#DBDBDB"/>
<path d="M535.816 179.855C548.007 179.203 560.232 179.198 572.425 179.855C560.234 180.511 548.008 180.506 535.816 179.855Z" fill="#FFC727"/>
<path d="M371.052 344.764C390.242 343.881 409.583 343.881 428.775 344.764C409.581 345.648 390.244 345.648 371.052 344.764Z" fill="#263238"/>
<path d="M528.838 344.764C543.357 344.112 557.905 344.107 572.425 344.764C557.905 345.421 543.357 345.416 528.838 344.764Z" fill="#FFC727"/>
<path d="M410.354 362.85C425.44 361.967 440.667 361.967 455.758 362.85C440.666 363.734 425.442 363.734 410.354 362.85Z" fill="#263238"/>
<path d="M410.354 369.531C422.991 368.647 435.763 368.647 448.402 369.531C435.762 370.415 422.991 370.415 410.354 369.531Z" fill="#263238"/>
<path d="M572.425 390.896C571.974 390.459 370.157 392.171 370.618 390.897C370.617 390.896 370.569 355.486 370.569 355.486L370.568 355H371.054L471.74 355.138C505.349 355.214 538.96 355.165 572.569 355.344C572.63 355.468 572.38 390.76 572.425 390.896ZM572.425 390.896L572.283 355.486C539.645 356.083 505.033 355.613 471.739 355.834C472.194 355.48 368.737 356.776 371.537 355.488C371.537 355.486 371.489 390.896 371.489 390.896C368.742 389.694 573.033 391.279 572.425 390.896Z" fill="#DBDBDB"/>
<path d="M401.921 360.591H376.265V386.248H401.921V360.591Z" fill="#FFC727"/>
<path d="M566.53 373.419C566.53 380.503 560.786 386.247 553.702 386.247C546.617 386.247 540.874 380.503 540.874 373.419C540.874 366.334 546.618 360.591 553.702 360.591C558.465 360.591 562.621 363.187 564.836 367.041C565.913 368.921 566.53 371.098 566.53 373.419Z" fill="#455A64"/>
<path d="M564.834 367.041L553.7 373.419V360.591C558.465 360.591 562.62 363.187 564.834 367.041Z" fill="#FFC727"/>
<path d="M553.702 382.292C558.602 382.292 562.574 378.319 562.574 373.419C562.574 368.519 558.602 364.547 553.702 364.547C548.802 364.547 544.829 368.519 544.829 373.419C544.829 378.319 548.802 382.292 553.702 382.292Z" fill="white"/>
<path d="M410.354 408.379C425.44 407.495 440.667 407.495 455.758 408.379C440.666 409.264 425.442 409.263 410.354 408.379Z" fill="#263238"/>
<path d="M410.354 415.06C422.991 414.176 435.763 414.176 448.402 415.06C435.762 415.944 422.991 415.944 410.354 415.06Z" fill="#263238"/>
<path d="M572.425 436.426C571.974 435.989 370.157 437.701 370.618 436.427C370.617 436.426 370.569 401.016 370.569 401.016L370.568 400.53L371.054 400.532L471.74 400.669C505.349 400.745 538.96 400.696 572.569 400.875C572.63 400.998 572.38 436.288 572.425 436.426ZM572.425 436.426L572.283 401.016C539.644 401.611 505.033 401.143 471.739 401.364C472.195 401.01 368.737 402.306 371.537 401.018C371.537 401.016 371.489 436.426 371.489 436.426C368.742 435.224 573.033 436.808 572.425 436.426Z" fill="#DBDBDB"/>
<path d="M401.921 406.12H376.265V431.777H401.921V406.12Z" fill="#455A64"/>
<path d="M566.53 418.949C566.53 419.587 566.483 420.215 566.388 420.828C565.485 427.022 560.148 431.777 553.702 431.777C546.618 431.777 540.874 426.033 540.874 418.949C540.874 411.865 546.618 406.121 553.702 406.121C558.462 406.121 562.617 408.714 564.834 412.571C565.913 414.449 566.53 416.628 566.53 418.949Z" fill="#455A64"/>
<path d="M566.53 418.949C566.53 419.587 566.483 420.215 566.388 420.828L553.702 418.949V406.121C558.462 406.121 562.617 408.714 564.835 412.571C565.913 414.449 566.53 416.628 566.53 418.949Z" fill="#FFC727"/>
<path d="M562.572 418.948C562.572 423.848 558.6 427.82 553.699 427.82C548.799 427.82 544.827 423.848 544.827 418.948C544.827 414.047 548.799 410.075 553.699 410.075C558.6 410.075 562.572 414.049 562.572 418.948Z" fill="white"/>
<path d="M410.354 453.909C425.44 453.025 440.667 453.025 455.758 453.909C440.666 454.792 425.442 454.792 410.354 453.909Z" fill="#263238"/>
<path d="M410.354 460.588C422.991 459.704 435.763 459.704 448.402 460.588C435.762 461.472 422.991 461.472 410.354 460.588Z" fill="#263238"/>
<path d="M572.425 481.954C571.974 481.517 370.157 483.229 370.618 481.955C370.617 481.954 370.569 446.545 370.569 446.545L370.568 446.059H371.054L471.74 446.196C505.349 446.272 538.96 446.223 572.569 446.402C572.63 446.526 572.38 481.817 572.425 481.954ZM572.425 481.954L572.283 446.545C539.645 447.139 505.033 446.672 471.739 446.892C472.194 446.538 368.737 447.834 371.537 446.546C371.537 446.545 371.489 481.954 371.489 481.954C368.742 480.752 573.033 482.338 572.425 481.954Z" fill="#DBDBDB"/>
<path d="M401.921 451.649H376.265V477.306H401.921V451.649Z" fill="#FFC727"/>
<path d="M566.53 464.477C566.53 469.939 563.113 474.609 558.299 476.454C556.869 477.006 555.319 477.305 553.702 477.305C546.618 477.305 540.874 471.561 540.874 464.477C540.874 457.393 546.618 451.649 553.702 451.649C558.466 451.649 562.622 454.243 564.834 458.1C565.913 459.979 566.53 462.157 566.53 464.477Z" fill="#455A64"/>
<path d="M566.53 464.477C566.53 469.939 563.113 474.609 558.299 476.454L553.702 464.477V451.649C558.466 451.649 562.622 454.243 564.835 458.1C565.913 459.979 566.53 462.157 566.53 464.477Z" fill="#FFC727"/>
<path d="M562.573 464.477C562.573 469.378 558.601 473.35 553.7 473.35C548.8 473.35 544.829 469.378 544.829 464.477C544.829 459.577 548.802 455.605 553.7 455.605C558.599 455.605 562.573 459.577 562.573 464.477Z" fill="white"/>
<path d="M592.236 469.499C576.208 491.207 559.496 516.398 555.427 543.619C555.378 544.031 556.037 544.166 556.133 543.756C557.994 536.29 560.348 529.04 563.221 521.962C573.758 519.062 584.101 516.679 589.634 506.222C595.278 495.47 594.561 481.452 593.488 469.742C593.414 469.113 592.562 469.082 592.236 469.499Z" fill="#FFC727"/>
<path d="M563.38 521.757C570.581 505.599 579.824 489.376 591.574 476.089C591.653 476 591.776 476.128 591.703 476.219C584.011 485.681 578.166 495.988 572.458 506.473C577.765 501.085 583.58 496.259 588.607 490.546C588.705 490.435 588.862 490.597 588.769 490.708C583.777 496.697 578.324 503.207 571.824 507.64C570.077 510.857 568.319 514.086 566.536 517.311C566.973 517.068 567.424 516.849 567.872 516.628C567.951 516.589 568.021 516.706 567.941 516.746C567.445 516.998 566.955 517.262 566.443 517.478C565.599 519.005 564.762 520.533 563.894 522.057C563.699 522.397 563.227 522.099 563.38 521.757Z" fill="#263238"/>
<path d="M568.737 516.12C573.032 513.657 577.175 511.01 581.04 507.908C581.145 507.823 581.296 507.969 581.19 508.058C577.394 511.272 573.347 514.149 568.913 516.422C568.713 516.525 568.54 516.233 568.737 516.12Z" fill="#263238"/>
<path d="M553.572 539.573C553.605 539.903 554.165 539.897 554.158 539.545C554.242 530.581 554.166 521.575 554.301 512.57C556.597 507.936 561.527 505.371 564.954 501.657C567.425 498.977 569.539 495.953 571.347 492.755C575.586 485.17 577.88 476.643 578.764 468.026C579.71 458.436 576.072 426.795 572.03 427.894C569.934 428.464 563.151 444.136 561.351 449.317C558.404 457.84 556.33 466.673 554.971 475.585C551.696 496.681 551.969 518.344 553.572 539.573Z" fill="#FFC727"/>
<path d="M553.509 500.901C553.523 500.89 553.536 500.878 553.549 500.866C554.04 489.524 556.596 478.07 558.987 467.068C561.563 455.216 564.577 444.057 570.676 433.486C570.79 433.289 571.08 433.463 570.978 433.664C566.826 441.841 563.86 450.523 561.589 459.44C561.998 458.801 562.494 458.194 562.919 457.592C563.086 457.354 563.479 457.576 563.314 457.822C562.717 458.715 562.176 459.757 561.409 460.514C561.383 460.539 561.356 460.543 561.33 460.55C559.231 469.021 557.723 477.686 556.434 486.329C556.531 486.219 556.623 486.101 556.72 485.995C556.786 485.923 556.898 486.014 556.852 486.097C556.693 486.384 556.514 486.669 556.338 486.954C555.689 491.341 555.086 495.72 554.481 500.06C562.292 493.383 568.964 485.514 572.726 475.817C572.744 475.773 572.817 475.791 572.8 475.838C569.113 485.896 563.303 494.837 554.356 500.939C554.193 502.109 554.03 503.278 553.863 504.442C553.829 504.684 553.443 504.62 553.444 504.385C553.448 503.352 553.497 502.315 553.537 501.28C553.426 501.181 553.373 501.014 553.509 500.901Z" fill="#263238"/>
<path d="M557.188 484.467C563.157 475.558 568.733 466.905 573.102 457.058C573.15 456.948 573.339 457.027 573.296 457.139C569.615 466.924 564.46 476.839 557.486 484.698C557.345 484.858 557.068 484.647 557.188 484.467Z" fill="#263238"/>
<path d="M565.121 454.857C567.594 450.482 570.201 446.224 572.529 441.762C572.594 441.638 572.766 441.746 572.713 441.87C570.76 446.43 568.426 451.06 565.502 455.08C565.339 455.305 564.978 455.11 565.121 454.857Z" fill="#263238"/>
<path d="M564.155 456.76C564.204 456.76 564.204 456.836 564.155 456.836C564.106 456.836 564.106 456.76 564.155 456.76Z" fill="#263238"/>
<path d="M547.506 513.647C547.353 519.587 546.711 525.528 545.411 531.309C545.503 531.947 545.595 532.584 545.689 533.243C547.561 526.808 548.54 520.213 548.848 513.557C548.951 513.373 548.992 513.173 548.875 512.948C548.875 512.948 548.875 512.948 548.874 512.928C549.212 504.039 548.388 495.051 546.895 486.254C544.119 469.779 538.054 453.968 526.565 441.621C526.201 441.24 525.474 441.438 525.296 441.883C520.66 453.671 522.278 467.739 526.227 479.499C528.375 485.834 531.443 491.917 535.337 497.364C539.279 502.907 544.303 507.595 547.506 513.647Z" fill="#FFC727"/>
<path d="M527.923 447.138C538.812 464.81 546.388 485.763 547.315 506.639C547.331 507.008 546.709 507.106 546.657 506.728C546.399 504.853 546.112 502.993 545.812 501.142C545.805 501.137 545.799 501.141 545.794 501.136C541.289 496.821 536.665 492.269 533.438 486.877C533.382 486.783 533.518 486.671 533.593 486.757C537.512 491.236 541.169 495.825 545.594 499.819C544.814 495.203 543.891 490.661 542.797 486.185C542.506 485.851 542.222 485.509 541.935 485.173C541.746 484.951 542.061 484.629 542.258 484.85C542.344 484.947 542.432 485.043 542.52 485.139C540.978 478.994 539.093 472.976 536.827 467.064C534.054 463.758 530.956 460.9 528.937 456.916C528.887 456.819 529.019 456.744 529.082 456.832C530.704 459.11 532.275 461.402 534.118 463.515C534.851 464.358 535.658 465.145 536.418 465.966C533.94 459.655 531 453.466 527.503 447.384C527.346 447.112 527.76 446.872 527.923 447.138Z" fill="#263238"/>
<path d="M530.125 468.938C533.645 473.675 537.656 478.194 540.927 483.09C541.022 483.23 540.817 483.374 540.7 483.265C536.496 479.322 532.939 473.935 529.889 469.077C529.792 468.924 530.023 468.801 530.125 468.938Z" fill="#263238"/>
<path d="M541.42 484.188L541.57 484.338C541.674 484.443 541.513 484.604 541.409 484.5L541.259 484.35C541.154 484.245 541.316 484.083 541.42 484.188Z" fill="#263238"/>
<path d="M510.863 481.112C511.737 490.204 516.521 501.065 522.353 508.071C524.937 511.17 528.073 513.54 531.671 515.343C535.707 517.34 539.932 519.639 544.108 521.277C546.059 526.259 547.552 531.478 548.51 536.917C548.645 536.462 548.778 535.988 548.913 535.532C546.233 512.512 531.338 492.836 512.283 480.206C511.599 479.749 510.787 480.335 510.863 481.112Z" fill="#FFC727"/>
<path d="M517.446 487.913C517.311 487.795 517.493 487.553 517.639 487.662C527.736 495.141 536.836 506.048 541.917 517.582C542.056 517.897 541.623 518.173 541.444 517.859C540.559 516.307 539.656 514.797 538.737 513.315C538.732 513.313 538.729 513.317 538.724 513.317C534.375 512.498 530.256 509.437 527.028 506.533C526.939 506.454 527.069 506.325 527.157 506.403C528.843 507.888 530.651 509.248 532.66 510.268C534.433 511.169 536.341 511.736 538.187 512.457C536.575 509.898 534.896 507.445 533.142 505.066C528.461 503.472 524.005 500.597 520.072 497.719C519.949 497.628 520.058 497.426 520.195 497.509C524.205 499.922 528.158 502.046 532.344 504.003C529.706 500.51 526.853 497.203 523.767 494.003C522.289 493.223 520.79 492.439 519.358 491.603C519.241 491.534 519.318 491.336 519.451 491.38C520.592 491.76 521.754 492.357 522.835 493.043C521.114 491.303 519.342 489.588 517.446 487.913Z" fill="#263238"/>
<path d="M517.851 495.861C518.114 496.029 518.351 496.179 518.584 496.385C518.654 496.447 518.565 496.537 518.492 496.505C518.214 496.384 517.984 496.236 517.728 496.073C517.597 495.987 517.718 495.777 517.851 495.861Z" fill="#263238"/>
<path d="M578.65 586.768H526.438L530.653 539.22L531.578 528.734H573.509L574.434 539.22L578.65 586.768Z" fill="#455A64"/>
<path d="M574.434 539.22H530.653L531.578 528.734H573.509L574.434 539.22Z" fill="#263238"/>
<path d="M576.007 521.403H529.081V531.78H576.007V521.403Z" fill="#455A64"/>
<path d="M334.871 128.842C334.871 153.486 314.883 173.474 290.239 173.474C280.281 173.474 271.086 170.208 263.65 164.673L241.787 170.254L250.889 149.896C247.507 143.619 245.609 136.439 245.609 128.842C245.609 104.199 265.597 84.2104 290.239 84.2104C314.883 84.2117 334.871 104.199 334.871 128.842Z" fill="white"/>
<path d="M334.871 128.842C334.939 146.709 323.949 163.155 307.567 170.162C293.234 176.287 275.899 174.426 263.376 165.042L263.766 165.12L241.928 170.805L240.788 171.102L241.267 170.021L250.32 149.64L250.34 150.191C247.065 144.171 245.237 137.375 245.022 130.529C244.09 109.639 258.899 89.9296 279.309 85.2497C307.178 78.1256 335.117 100.134 334.871 128.842ZM334.871 128.842C334.969 100.224 307.189 78.504 279.48 85.9392C259.723 90.6929 245.223 110.221 246.264 130.484C246.528 137.139 248.306 143.723 251.438 149.599L251.583 149.872L251.459 150.151L242.307 170.486L241.647 169.702L263.536 164.224L263.753 164.17C276.761 174.3 295.532 176.006 310.21 168.542C325.112 161.365 334.876 145.354 334.871 128.842Z" fill="#263238"/>
<path d="M283.009 155.398L263.008 135.152L269.727 128.514L281.411 140.34L305.685 102.286L313.649 107.365L283.009 155.398Z" fill="#FFC727"/>
<path d="M266.928 296.14C273.435 294.994 279.135 290.331 281.01 283.876C282.847 277.531 280.643 270.611 275.903 266.162C282.774 264.479 288.601 259.592 289.023 251.887C289.46 243.915 283.705 237.871 276.196 236.315C276.141 236.304 276.111 236.393 276.166 236.411C282.841 238.568 288.251 244.412 287.751 251.761C287.322 258.045 283.308 261.893 278.181 263.99C282.041 260.447 284.842 255.691 284.892 250.338C284.942 244.467 281.45 238.791 276.031 236.584C278.703 230.461 279.425 222.998 275.929 217.046C272.993 212.037 267.291 208.869 261.543 209.64C262.958 203.164 260.448 195.979 254.883 192.161C249.663 188.566 242.72 188.461 237.248 191.419C238.658 181.508 229.135 173.308 219.444 176.305C219.357 172.699 216.887 169.556 213.522 168.138C209.651 166.491 205.35 167.394 201.554 168.942C199.377 165.927 195.82 163.912 192 164.142C186.897 164.452 183.143 168.471 182.613 173.313C176.125 171.747 168.866 170.953 162.8 174.227C157.811 176.922 154.074 182.318 154.74 188.076C142.762 186.829 132.446 196.226 132.566 208.301C127.646 209.172 123.655 212.845 121.955 217.564C120.243 222.316 120.426 225.87 120.67 227.542C116.308 228.67 113.209 232.648 112.937 237.151C112.668 241.584 114.832 245.142 117.809 248.058C118.065 249.161 118.115 250.253 117.841 251.616C116.618 257.755 118.256 263.788 122.6 268.289C118.899 274.668 122.103 283.433 129.024 285.934C127.392 293.268 132.564 301.03 139.928 302.401C139.276 308.278 141.099 314.269 145.17 318.632C148.287 321.977 153.2 324.363 157.581 322.65C157.498 326.249 161.174 328.81 164.658 329.087C165.98 329.192 167.313 329.064 168.619 328.877C170.17 328.645 172.093 327.937 173.655 328.278C175.277 328.614 176.413 330.161 177.67 331.106C178.573 331.783 179.559 332.363 180.587 332.839C188.376 336.394 198.219 333.758 203.092 326.784C207.973 330.415 214.481 329.06 219.501 326.193C221.154 325.246 222.58 324.082 224.037 322.87C225.381 321.75 226.618 320.856 228.433 320.642C229.529 320.515 230.648 320.637 231.749 320.519C235.487 320.107 238.014 317.529 240.208 314.722C253.637 323.908 268.694 310.93 266.928 296.14ZM114.333 239.216C113.894 234.34 116.448 230.202 120.751 228.048C120.818 228.392 120.877 228.615 120.877 228.615C120.877 228.615 119.727 229.635 119.223 230.192C118.317 231.218 117.573 232.383 116.999 233.63C115.805 236.221 115.375 239.181 115.838 241.994C116.045 243.261 116.466 244.452 116.972 245.622C117.04 245.779 117.083 245.912 117.145 246.063C115.687 244.055 114.573 241.879 114.333 239.216ZM194.152 167.24C189.707 166.921 185.337 169.457 183.593 173.542C183.478 173.514 183.358 173.489 183.243 173.461C184.443 169.022 186.765 165.305 192.087 165.074C195.803 164.914 198.442 166.816 200.33 169.463C200.31 169.472 200.289 169.481 200.268 169.49C198.498 168.224 196.444 167.397 194.152 167.24ZM240.65 314.153C240.683 314.11 240.716 314.068 240.749 314.026C251.026 317.569 261.605 312.064 265.198 302.641C261.964 313.319 252.975 320.675 240.65 314.153Z" fill="#263238"/>
<path d="M199.72 374.303C225.968 430.473 270.471 506.527 290.896 509.698C303.237 511.615 324.104 513.276 339.959 498.34C374.558 465.745 398.266 419.174 411.413 395.265C417.381 384.412 350.677 336.096 342.283 346.34C322.628 370.325 300.454 416.79 296.816 416.646C283.354 416.115 263.399 383.363 230.809 352.987C191.551 316.398 188.503 350.3 199.72 374.303Z" fill="#AD6359"/>
<path d="M401.899 410.474C418.384 392.884 440.03 366.677 440.082 355.652C440.136 344.082 438.696 303.395 435.312 294.047C431.928 284.7 413.822 260.601 405.522 257.422C398.877 254.878 395.316 263.102 403.043 278.032C411.685 294.729 409.046 301.463 409.443 306.809C409.855 312.361 400.574 335.943 392.775 337.944C388.179 339.123 378.641 339.07 376.474 330.783C374.307 322.496 376.489 314.987 373.269 300.528C370.765 289.287 361.364 282.296 357.491 284.262C353.618 286.228 356.826 292.961 354.275 309.812C352.683 320.321 351.131 327.862 338.601 343.22C327.634 356.661 326.956 375.275 326.956 375.275L401.899 410.474Z" fill="#AD6359"/>
<path d="M440.849 329.722C440.394 323.381 444.719 304.171 443.227 295.795C441.734 287.418 431.904 256.612 422.53 254.099C410.749 250.942 414.251 275.998 416.761 286.736C419.272 297.476 412.387 316.85 412.387 316.85L428.605 323.741L440.849 329.722Z" fill="#AD6359"/>
<path d="M410.032 321.264C412.936 311.525 416.541 301.621 416.671 291.373C416.176 284.046 414.703 276.826 414.356 269.435C414.259 265.059 413.978 260.271 416.201 256.31C416.966 255.005 418.331 254.055 419.804 253.892C418.349 254.204 417.154 255.207 416.498 256.482C414.648 260.471 415.082 265.076 415.35 269.368C415.842 275.208 416.805 281.008 417.554 286.875C419.073 298.772 414.252 310.392 410.032 321.264Z" fill="#263238"/>
<path d="M440.298 335.24C441.62 329.064 451.047 312.009 451.945 303.591C452.843 295.174 452.023 262.958 443.809 257.844C433.485 251.416 429.882 276.314 429.296 287.279C428.71 298.244 416.807 314.712 416.807 314.712L430.316 325.986L440.298 335.24Z" fill="#AD6359"/>
<path d="M413.346 318.239C418.812 309.781 424.996 301.357 427.933 291.634C429.478 284.521 430.079 277.243 431.789 270.112C432.906 265.92 433.954 261.279 437.171 258.127C438.259 257.095 439.833 256.584 441.277 256.856C439.807 256.732 438.383 257.342 437.408 258.376C434.543 261.659 433.692 266.167 432.762 270.325C431.62 276.02 430.931 281.805 430.025 287.599C428.21 299.323 420.382 309.091 413.346 318.239Z" fill="#263238"/>
<path d="M415.556 333.118C407.99 339.38 397.435 341.719 387.831 342.35C380.53 342.733 373.286 344.323 366.781 347.729C364.57 348.779 362.507 350.106 360.413 351.398C368.047 345.046 377.848 341.544 387.735 341.084C397.365 340.408 407.372 338.475 415.556 333.118Z" fill="#263238"/>
<path d="M439.496 260.788L405.205 353.674C404.258 356.24 401.371 357.901 398.769 357.384L352.178 348.106C349.577 347.588 348.234 345.084 349.181 342.518L383.472 249.632C384.422 247.061 387.299 245.403 389.902 245.92L436.493 255.198C439.095 255.717 440.446 258.217 439.496 260.788Z" fill="#37474F"/>
<path d="M433.646 254.632L387.053 245.353C384.451 244.834 381.572 246.493 380.624 249.063L346.333 341.949C345.385 344.513 346.728 347.019 349.329 347.537L395.922 356.815C398.523 357.334 401.409 355.671 402.356 353.105L436.647 260.219C437.597 257.65 436.248 255.149 433.646 254.632ZM400.468 349.647C399.566 352.092 396.944 353.693 394.613 353.229L352.931 344.928C350.594 344.463 349.433 342.108 350.336 339.664L382.267 253.17C384.106 248.19 386.086 248.323 388.423 248.788L396.773 250.451C397.258 250.547 397.457 251.16 397.214 251.822L397.109 252.107C396.536 253.659 397.411 253.838 398.485 254.051L417.793 257.897C418.879 258.113 419.751 258.28 420.324 256.73L420.429 256.445C420.673 255.783 421.262 255.327 421.755 255.425L430.102 257.088C432.434 257.552 434.08 258.591 432.396 263.152L400.468 349.647Z" fill="#263238"/>
<path d="M432.399 263.155L400.468 349.648C399.566 352.094 396.944 353.694 394.613 353.23L352.931 344.93C350.594 344.464 349.433 342.109 350.336 339.665L382.267 253.171C384.106 248.191 386.086 248.324 388.423 248.79L396.773 250.452C397.258 250.548 397.458 251.161 397.214 251.824L397.109 252.109C396.536 253.66 397.411 253.839 398.485 254.053L417.793 257.898C418.879 258.114 419.751 258.282 420.324 256.732L420.429 256.446C420.673 255.784 421.262 255.328 421.755 255.426L430.102 257.089C432.438 257.555 434.084 258.593 432.399 263.155Z" fill="white"/>
<path d="M394.615 252.107C394.579 252.128 394.543 252.149 394.507 252.17C394.486 252.181 394.465 252.193 394.444 252.205C394.303 251.957 394.085 251.798 393.783 251.738C393.481 251.678 393.183 251.734 392.889 251.896C392.88 251.879 392.871 251.861 392.862 251.843C392.845 251.812 392.828 251.781 392.811 251.75L392.81 251.748L392.811 251.747C392.814 251.746 392.817 251.745 392.819 251.743C392.865 251.721 392.909 251.697 392.954 251.676C393.047 251.633 393.144 251.601 393.244 251.577C393.361 251.55 393.479 251.536 393.594 251.537C393.649 251.538 393.703 251.544 393.757 251.548C393.776 251.549 393.892 251.572 393.895 251.572C393.93 251.581 393.965 251.59 393.998 251.601C394.093 251.63 394.18 251.672 394.26 251.724C394.319 251.761 394.373 251.803 394.422 251.851C394.474 251.9 394.521 251.954 394.561 252.013C394.582 252.043 394.6 252.074 394.619 252.104C394.617 252.106 394.615 252.107 394.615 252.107Z" fill="#C7C7C7"/>
<path d="M393.054 252.192C393.027 252.142 392.999 252.093 392.972 252.044C393.168 251.935 393.373 251.881 393.584 251.895C393.9 251.916 394.127 252.056 394.272 252.3C394.214 252.334 394.157 252.365 394.098 252.399C394.004 252.234 393.857 252.127 393.654 252.087C393.45 252.045 393.25 252.084 393.054 252.192Z" fill="#C7C7C7"/>
<path d="M393.925 252.498C393.868 252.53 393.81 252.562 393.752 252.595C393.704 252.512 393.629 252.455 393.524 252.434C393.419 252.413 393.317 252.434 393.217 252.489C393.19 252.439 393.162 252.39 393.135 252.341C393.414 252.176 393.782 252.232 393.925 252.498Z" fill="#C7C7C7"/>
<path d="M393.559 252.675C393.535 252.735 393.467 252.776 393.403 252.763C393.34 252.75 393.308 252.69 393.33 252.629C393.352 252.569 393.421 252.529 393.485 252.541C393.548 252.554 393.581 252.614 393.559 252.675Z" fill="#C7C7C7"/>
<path d="M386.662 250.778C386.728 250.6 386.929 250.486 387.113 250.522C387.297 250.559 387.391 250.732 387.327 250.91C387.262 251.087 387.06 251.201 386.876 251.165C386.692 251.129 386.596 250.955 386.662 250.778Z" fill="#C7C7C7"/>
<path d="M387.709 250.985C387.775 250.808 387.976 250.694 388.16 250.73C388.344 250.766 388.439 250.94 388.374 251.117C388.308 251.295 388.105 251.409 387.923 251.373C387.739 251.336 387.643 251.163 387.709 250.985Z" fill="#C7C7C7"/>
<path d="M388.755 251.194C388.821 251.016 389.022 250.902 389.206 250.938C389.39 250.975 389.484 251.148 389.42 251.326C389.355 251.503 389.153 251.617 388.969 251.581C388.785 251.545 388.689 251.371 388.755 251.194Z" fill="#C7C7C7"/>
<path d="M389.801 251.402C389.867 251.225 390.068 251.111 390.252 251.147C390.436 251.183 390.53 251.357 390.466 251.534C390.4 251.712 390.197 251.826 390.015 251.79C389.832 251.753 389.736 251.58 389.801 251.402Z" fill="#C7C7C7"/>
<path d="M390.848 251.611C390.914 251.434 391.115 251.32 391.299 251.356C391.483 251.392 391.577 251.566 391.513 251.743C391.448 251.921 391.246 252.035 391.062 251.999C390.878 251.962 390.782 251.789 390.848 251.611Z" fill="#C7C7C7"/>
<path d="M429.505 260.064L426.8 259.525L427.248 258.312L429.953 258.851L429.505 260.064ZM426.987 259.418L429.415 259.902L429.765 258.956L427.337 258.472L426.987 259.418Z" fill="#C7C7C7"/>
<path d="M429.139 258.909L427.396 258.562L427.099 259.364L428.844 259.71L429.139 258.909Z" fill="#C7C7C7"/>
<path d="M429.851 259.829L429.61 259.781L429.85 259.132L430.091 259.18L429.851 259.829Z" fill="#C7C7C7"/>
<path d="M411.491 254.565L406.224 253.516C406.043 253.48 405.95 253.31 406.015 253.136C406.08 252.963 406.277 252.85 406.457 252.886L411.724 253.935C411.904 253.971 411.997 254.141 411.933 254.314C411.868 254.488 411.671 254.599 411.491 254.565Z" fill="white"/>
<path d="M357.101 340.295L356.856 340.247L356.453 341.337L355.996 341.246L356.201 340.69L355.389 340.528L355.185 341.084L354.726 340.994L355.129 339.902L354.884 339.854L356.403 338.965L357.101 340.295Z" fill="#EBEBEB"/>
<path d="M397.087 347.465L394.415 346.932L394.551 346.562L397.224 347.094L397.087 347.465Z" fill="#EBEBEB"/>
<path d="M396.75 348.38L394.076 347.847L394.212 347.478L396.886 348.01L396.75 348.38Z" fill="#EBEBEB"/>
<path d="M396.412 349.295L393.738 348.762L393.875 348.393L396.548 348.925L396.412 349.295Z" fill="#EBEBEB"/>
<path d="M376.624 344.214L375.575 344.848L375.104 343.911L375.283 343.816L375.671 344.588L376.535 344.065L376.624 344.214Z" fill="#EBEBEB"/>
<path d="M375.274 345.659C374.513 345.508 374.115 344.784 374.387 344.047C374.66 343.31 375.501 342.834 376.261 342.984C377.022 343.136 377.421 343.859 377.148 344.596C376.877 345.335 376.036 345.811 375.274 345.659ZM376.197 343.162C375.536 343.03 374.806 343.444 374.57 344.083C374.334 344.724 374.679 345.351 375.34 345.483C376.001 345.615 376.731 345.202 376.966 344.561C377.202 343.921 376.858 343.294 376.197 343.162Z" fill="#EBEBEB"/>
<path d="M385.519 259.5L384.534 257.86L386.513 256.811L386.655 257.093L385.025 257.957L385.837 259.309L385.519 259.5Z" fill="#DBDBDB"/>
<path d="M427.534 265.524C427.477 265.679 427.299 265.78 427.138 265.748C426.978 265.715 426.893 265.564 426.95 265.407C427.007 265.251 427.185 265.15 427.346 265.183C427.506 265.215 427.591 265.368 427.534 265.524Z" fill="#DBDBDB"/>
<path d="M427.163 266.528C427.106 266.684 426.928 266.785 426.768 266.752C426.607 266.72 426.523 266.568 426.58 266.411C426.637 266.256 426.814 266.155 426.975 266.187C427.136 266.22 427.22 266.373 427.163 266.528Z" fill="#DBDBDB"/>
<path d="M426.792 267.532C426.735 267.688 426.558 267.789 426.397 267.757C426.236 267.724 426.152 267.573 426.209 267.416C426.266 267.26 426.444 267.159 426.605 267.192C426.765 267.224 426.849 267.377 426.792 267.532Z" fill="#DBDBDB"/>
<path d="M397.161 260.553C402.994 261.494 408.791 262.649 414.474 264.001C408.639 263.061 402.842 261.906 397.161 260.553Z" fill="#DBDBDB"/>
<path d="M380.842 264.863C385.079 265.482 389.276 266.318 393.361 267.356C389.122 266.737 384.927 265.901 380.842 264.863Z" fill="#DBDBDB"/>
<path d="M413.774 276.339C416.671 276.691 419.523 277.259 422.264 278.03C419.368 277.676 416.515 277.109 413.774 276.339Z" fill="#DBDBDB"/>
<path d="M413.435 277.255C416.331 277.608 419.184 278.176 421.925 278.947C419.029 278.594 416.177 278.026 413.435 277.255Z" fill="#DBDBDB"/>
<path d="M380.371 266.137C383.115 266.458 385.813 266.996 388.402 267.736C385.659 267.415 382.961 266.877 380.371 266.137Z" fill="#DBDBDB"/>
<path d="M397.977 273.48L390.088 284.66L385.529 297.012C378.489 295.61 374.822 288.94 377.338 282.121C379.855 275.303 387.608 270.907 394.649 272.308C395.865 272.55 396.978 272.955 397.977 273.48Z" fill="#FFC727"/>
<path d="M393.969 296.113C391.298 297.205 388.356 297.576 385.528 297.012L390.087 284.66L393.969 296.113Z" fill="#263238"/>
<path d="M402.842 287.2C401.335 291.284 397.953 294.494 393.969 296.113L390.087 284.66L402.871 278.871C403.864 281.345 403.927 284.26 402.842 287.2Z" fill="#37474F"/>
<path d="M404.595 278.249L389.911 284.899L398.973 272.057C401.607 273.455 403.551 275.636 404.595 278.249Z" fill="#C7C7C7"/>
<path d="M396.465 285.93C395.205 289.341 391.33 291.538 387.807 290.837C384.285 290.136 382.451 286.803 383.711 283.392C384.97 279.98 388.845 277.784 392.368 278.485C395.889 279.186 397.724 282.519 396.465 285.93Z" fill="white"/>
<path d="M412.069 277.204L410.698 276.931L411.187 275.603L412.56 275.876L412.069 277.204Z" fill="#FFC727"/>
<path d="M412.487 279.823C415.384 280.175 418.236 280.743 420.977 281.514C418.081 281.162 415.23 280.594 412.487 279.823Z" fill="#DBDBDB"/>
<path d="M412.149 280.74C415.045 281.093 417.898 281.66 420.64 282.432C417.742 282.079 414.891 281.51 412.149 280.74Z" fill="#DBDBDB"/>
<path d="M410.783 280.688L409.41 280.416L409.902 279.086L411.273 279.36L410.783 280.688Z" fill="#263238"/>
<path d="M411.2 283.308C414.097 283.66 416.949 284.228 419.692 284.999C416.795 284.645 413.943 284.077 411.2 283.308Z" fill="#DBDBDB"/>
<path d="M410.862 284.224C413.759 284.576 416.611 285.144 419.352 285.915C416.456 285.562 413.604 284.995 410.862 284.224Z" fill="#DBDBDB"/>
<path d="M409.496 284.173L408.125 283.9L408.615 282.571L409.987 282.845L409.496 284.173Z" fill="#37474F"/>
<path d="M409.915 286.791C412.811 287.144 415.664 287.711 418.405 288.482C415.508 288.13 412.657 287.562 409.915 286.791Z" fill="#DBDBDB"/>
<path d="M409.576 287.708C412.473 288.061 415.325 288.629 418.067 289.4C415.17 289.047 412.319 288.478 409.576 287.708Z" fill="#DBDBDB"/>
<path d="M408.21 287.657L406.838 287.385L407.329 286.055L408.7 286.329L408.21 287.657Z" fill="#C7C7C7"/>
<path d="M383.083 341.963L380.083 341.366L390.602 312.877L393.601 313.474L383.083 341.963Z" fill="#EBEBEB"/>
<path d="M368.719 298.508C376.799 299.896 385.256 301.585 393.195 303.383C385.103 301.988 376.649 300.31 368.719 298.508Z" fill="#263238"/>
<path d="M368.134 300.092C372.732 300.783 377.291 301.691 381.736 302.8C377.136 302.108 372.578 301.201 368.134 300.092Z" fill="#263238"/>
<path d="M403.333 305.402C406.575 305.883 409.768 306.516 412.895 307.306C409.653 306.827 406.461 306.19 403.333 305.402Z" fill="#FFC727"/>
<path d="M362.937 324.885L361.955 324.689L367.678 309.188L368.66 309.383L362.937 324.885Z" fill="#FFC727"/>
<path d="M358.763 336.191L357.781 335.995L361.461 326.028L362.444 326.224L358.763 336.191Z" fill="#455A64"/>
<path d="M370.029 319.421L369.045 319.225L372.403 310.13L373.386 310.324L370.029 319.421Z" fill="#FFC727"/>
<path d="M363.489 337.132L362.507 336.936L368.552 320.564L369.534 320.76L363.489 337.132Z" fill="#455A64"/>
<path d="M376.567 315.45L375.585 315.254L377.13 311.071L378.112 311.266L376.567 315.45Z" fill="#FFC727"/>
<path d="M368.216 338.073L367.234 337.877L375.091 316.594L376.074 316.79L368.216 338.073Z" fill="#455A64"/>
<path d="M378.584 323.734L377.602 323.538L381.856 312.011L382.839 312.207L378.584 323.734Z" fill="#FFC727"/>
<path d="M372.942 339.013L371.96 338.818L377.106 324.876L378.089 325.072L372.942 339.013Z" fill="#455A64"/>
<path d="M384.207 322.243L383.225 322.047L386.583 312.952L387.565 313.148L384.207 322.243Z" fill="#FFC727"/>
<path d="M377.669 339.956L376.687 339.76L382.73 323.388L383.712 323.583L377.669 339.956Z" fill="#455A64"/>
<path d="M384.968 333.925L383.986 333.73L391.309 313.895L392.29 314.089L384.968 333.925Z" fill="#FFC727"/>
<path d="M382.394 340.897L381.412 340.701L383.492 335.07L384.473 335.266L382.394 340.897Z" fill="#455A64"/>
<path d="M393.906 323.456L392.924 323.261L396.034 314.835L397.017 315.031L393.906 323.456Z" fill="#FFC727"/>
<path d="M387.121 341.837L386.138 341.642L392.43 324.601L393.413 324.796L387.121 341.837Z" fill="#455A64"/>
<path d="M392.964 339.752L391.982 339.557L400.761 315.776L401.743 315.972L392.964 339.752Z" fill="#FFC727"/>
<path d="M391.847 342.778L390.865 342.583L391.488 340.896L392.469 341.092L391.847 342.778Z" fill="#455A64"/>
<path d="M404.59 322.006L403.607 321.811L405.488 316.717L406.47 316.913L404.59 322.006Z" fill="#FFC727"/>
<path d="M396.574 343.721L395.591 343.525L403.112 323.15L404.094 323.346L396.574 343.721Z" fill="#455A64"/>
<path d="M372.165 304.773C375.061 305.126 377.914 305.694 380.655 306.465C377.758 306.111 374.907 305.543 372.165 304.773Z" fill="#DBDBDB"/>
<path d="M371.827 305.689C374.723 306.042 377.576 306.61 380.317 307.381C377.42 307.028 374.569 306.461 371.827 305.689Z" fill="#DBDBDB"/>
<path d="M370.461 305.639L369.088 305.366L369.579 304.037L370.95 304.311L370.461 305.639Z" fill="#FFC727"/>
<path d="M386.343 307.596C389.24 307.948 392.092 308.516 394.834 309.287C391.938 308.934 389.085 308.367 386.343 307.596Z" fill="#DBDBDB"/>
<path d="M386.005 308.513C388.901 308.866 391.754 309.433 394.495 310.204C391.598 309.852 388.747 309.284 386.005 308.513Z" fill="#DBDBDB"/>
<path d="M384.639 308.463L383.268 308.189L383.757 306.861L385.13 307.133L384.639 308.463Z" fill="#455A64"/>
<path d="M437.615 363.315C440.242 357.728 449.179 335.744 449.691 326.432C450.203 317.12 447.417 281.636 437.965 276.295C426.087 269.584 423.52 297.163 423.503 309.271C423.488 321.38 412.688 334.213 412.688 334.213L430.021 349.549L437.615 363.315Z" fill="#AD6359"/>
<path d="M425.056 290.292C425.273 294.285 425.06 298.384 424.874 302.369C424.698 306.147 424.806 310.092 424.063 313.801C423.318 317.524 421.705 320.934 419.795 324.182C418.856 325.78 417.824 327.302 416.744 328.809C415.568 330.452 414.221 331.993 413.075 333.653C412.954 333.829 412.661 333.658 412.781 333.477C414.794 330.433 416.458 327.006 418.047 323.722C419.702 320.304 420.965 316.612 421.718 312.881C423.227 305.413 423.099 297.693 424.536 290.214C424.593 289.912 425.04 290.008 425.056 290.292Z" fill="#263238"/>
<path d="M424.063 313.801C423.94 305.321 421.716 270.108 436.917 275.318C445.395 280.246 447.708 298.678 448.683 307.769C447.056 299.304 444.125 280.915 436.383 276.435C423.29 272.175 424.861 306.09 424.063 313.801Z" fill="#263238"/>
<path d="M326.252 365.413L401.476 427.382C401.476 427.382 361.466 488.493 334.339 505.735C321.539 513.871 295.562 513.899 286.906 510.668C278.824 507.651 233.441 462.377 199.48 380.857C173.103 317.537 215.113 333.063 230.881 349.488C247.866 367.181 292.647 412.555 295.116 411.812C297.585 411.067 326.252 365.413 326.252 365.413Z" fill="#FFC727"/>
<path d="M316.487 387.865C327.818 396.706 338.874 405.875 349.868 415.117C355.259 419.649 375.975 438.454 381.945 443.755C382.181 443.965 381.614 444.58 381.361 444.386C375.484 439.867 353.588 421.436 348.271 416.815C337.45 407.407 326.689 397.932 316.227 388.141C316.04 387.968 316.289 387.71 316.487 387.865Z" fill="#263238"/>
<path opacity="0.1" d="M326.593 509.267C313.016 513.787 294.053 513.341 286.914 510.668C278.823 507.645 233.437 462.364 199.472 380.873C184.999 346.142 191.103 335.125 202.186 334.988C218.198 357.292 284.767 450.332 326.593 509.267Z" fill="black"/>
<path d="M277.087 586.731H78.5181C88.2484 539.694 130.6 370.344 165.141 345.243C186.372 329.818 214.431 340.516 219.2 347.095C238.787 374.132 271.393 543.468 277.087 586.731Z" fill="#EBEBEB"/>
<path d="M222.478 352.105C222.458 352.02 222.311 352.039 222.321 352.127C223.286 360.391 224.897 379.591 209.8 379.376C203.718 379.289 198.046 376.366 193.287 373.453C188.401 370.461 184.011 366.907 180.016 363.06C175.582 358.793 171.016 354.311 167.482 349.434C167.332 349.227 166.962 349.477 167.124 349.684C170.92 354.53 174.132 359.613 178.48 364.13C182.663 368.478 187.385 372.471 192.811 375.654C197.898 378.634 203.929 381.528 210.358 381.353C216.473 381.188 220.771 377.646 222.343 372.653C224.409 366.097 223.951 358.601 222.478 352.105Z" fill="#263238"/>
<path d="M171.472 338.637C171.472 338.637 184.634 408.895 187.123 434.992C189.611 461.088 181.693 586.73 181.693 586.73L75.1833 586.727C75.1833 586.727 107.455 432.21 139.115 372.371C156.79 338.965 171.472 338.637 171.472 338.637Z" fill="#FFC727"/>
<path d="M216.887 343.407C216.887 343.407 238.153 422.888 239.55 431.331C240.946 439.773 248.011 587.374 248.011 587.374L282.816 587.131C282.816 587.131 246.172 364.696 216.887 343.407Z" fill="#FFC727"/>
<path d="M138.151 367.057C93.3172 427.425 43.219 548.186 58.6634 569.066C75.8665 592.322 138.23 507.765 137.34 503.465C136.666 500.215 152.753 428.88 165.254 376.884C177.742 324.936 149.237 352.129 138.151 367.057Z" fill="#AD6359"/>
<path d="M137.839 503.478C139.045 495.924 161.334 401.705 167.326 372.06C173.318 342.415 162.851 334.974 138.029 364.846C113.206 394.721 63.0011 489.917 55.2186 537.785C47.7225 583.898 70.4686 580.696 97.6185 556.106C119.845 535.974 137.839 503.478 137.839 503.478Z" fill="#FFC727"/>
<path d="M137.839 503.478C144.294 466.908 152.482 430.659 162.411 394.874C155.971 431.439 147.753 467.696 137.839 503.478Z" fill="#263238"/>
<path d="M163.669 400.229C163.444 405.121 161.386 409.899 158.256 413.646C159.788 409.097 161.729 404.639 163.669 400.229Z" fill="#263238"/>
<path d="M58.6633 569.066C72.8027 584.244 105.296 582.946 187.418 587.355C198.782 587.965 224.663 508.927 212.561 507.652C197.317 506.046 137.815 503.115 133.437 503.449C96.5091 506.276 49.0716 558.769 58.6633 569.066Z" fill="#AD6359"/>
<path d="M198.2 510.48C198.2 510.48 228.424 500.717 245.891 500.505C269.28 500.22 289.591 509.602 297.865 514.048C315.137 523.329 350.48 557.708 342.355 569.615C334.999 580.394 300.646 543.427 300.646 543.427C300.646 543.427 341.891 575.339 330.648 586.689C319.406 598.039 281.969 552.857 281.969 552.857C281.969 552.857 323.612 586.596 310.166 596.466C300.006 603.924 263.793 564.914 263.793 564.914C263.793 564.914 299.385 594.16 289.266 602.281C278.084 611.256 242.399 577.342 242.399 577.342C213.202 593.656 192.627 589.479 178.344 584.766C174.886 583.624 198.2 510.48 198.2 510.48Z" fill="#AD6359"/>
<path d="M287.09 531.475C292.07 535.048 297.136 538.632 301.781 542.635C306.427 546.639 310.938 550.808 315.19 555.226C325.62 566.063 330.455 574.479 330.1 573.992C321.696 562.467 305.287 547.876 300.64 543.872C296.004 539.876 291.567 535.647 286.932 531.646C286.814 531.547 286.971 531.391 287.09 531.475Z" fill="#263238"/>
<path d="M272.327 547.988C278.49 552.826 284.784 557.402 290.734 562.515C296.654 567.601 301.828 572.945 307.384 578.426C307.812 578.848 307.445 578.939 306.998 578.532C301.228 573.277 295.488 568.865 289.657 563.678C283.846 558.511 278.194 553.077 272.2 548.125C272.107 548.049 272.234 547.915 272.327 547.988Z" fill="#263238"/>
<path d="M257.109 559.882C266.906 566.793 275.414 575.503 283.557 584.247C283.963 584.683 283.475 584.747 283.035 584.328C274.395 576.062 267.677 569.517 256.868 560.223C256.7 560.078 256.903 559.737 257.109 559.882Z" fill="#263238"/>
<path d="M203.126 505.261L144.075 593.09C144.075 593.09 70.983 586.798 57.9958 570.105C49.4474 559.119 95.9375 503.201 136.979 503.181L203.126 505.261Z" fill="#FFC727"/>
<path d="M90.7522 522.622C96.5829 517.005 113.313 503.47 137.027 503.112C137.236 503.108 137.288 503.44 137.076 503.465C119.438 505.441 97.0196 517.963 90.9479 522.891C90.7884 523.019 90.6057 522.764 90.7522 522.622Z" fill="#263238"/>
<path d="M123.093 582.728C129.07 572.723 135.572 563.048 142.104 553.39C148.638 543.726 155.156 534.046 161.932 524.544C165.761 519.176 169.559 513.782 173.574 508.549C173.679 508.411 173.935 508.553 173.843 508.708C167.881 518.699 161.409 528.413 154.953 538.098C148.483 547.806 141.904 557.453 135.24 567.033C131.474 572.447 127.61 577.793 123.598 583.029C123.398 583.287 122.918 583.021 123.093 582.728Z" fill="#263238"/>
<path d="M203.109 504.232C198.635 503.417 194.104 503.298 189.564 503.09C185.03 502.884 180.491 502.755 175.953 502.668C166.926 502.494 147.816 501.097 131.522 503.435C131.342 503.461 132.387 504.205 132.565 504.171C140.267 502.66 197.445 505.899 202.059 505.581C201.922 505.904 201.791 506.228 201.699 506.579C201.637 506.816 201.902 507.077 202.12 506.881C202.638 506.416 202.978 505.878 203.458 505.379C203.852 504.968 203.688 504.337 203.109 504.232Z" fill="#263238"/>
<path d="M76.4988 580.591C83.7356 582.095 93.8678 585.046 101.101 586.937C92.5705 586.589 84.2579 584.041 76.4988 580.591Z" fill="#263238"/>
<path d="M208.382 372.477C197.623 373.791 177.149 359.005 171.34 343.192C170.947 342.106 174.068 331.774 177.266 319.041C179.176 311.306 181.12 302.649 182.324 294.621C182.562 292.972 230.84 314.404 230.84 314.404C230.84 314.404 223.366 330.489 221.353 344.499C221.197 345.672 221.151 346.778 221.205 347.845C221.2 348 221.217 348.189 221.196 348.403C221.278 354.811 219.896 371.071 208.382 372.477Z" fill="#AD6359"/>
<path d="M221.221 347.844C221.203 348.006 221.212 348.204 221.19 348.399C219.584 348.377 217.864 348.21 215.997 347.896C186.459 342.797 184.2 304.53 184.103 294.904C192.858 297.527 230.842 314.402 230.842 314.402C230.842 314.402 223.363 330.502 221.345 344.512C221.209 345.676 221.147 346.785 221.221 347.844Z" fill="#263238"/>
<path d="M182.351 230.719C174.771 248.005 178.145 300.912 189.539 313.96C206.056 332.876 236.135 338.038 252.973 317.489C269.296 297.571 263.678 228.699 250.668 216.528C231.506 198.603 193.548 205.187 182.351 230.719Z" fill="#AD6359"/>
<path d="M228.901 270.17C228.868 270.035 228.627 270.35 228.637 270.495C228.876 274.059 228.549 278.183 225.363 279.48C225.264 279.521 225.28 279.701 225.399 279.679C229.319 278.987 229.698 273.51 228.901 270.17Z" fill="#263238"/>
<path d="M225.582 266.555C219.826 266.322 219.782 277.849 225.114 278.066C230.363 278.279 230.407 266.752 225.582 266.555Z" fill="#263238"/>
<path d="M249.569 270.833C249.597 270.697 249.848 271.002 249.843 271.15C249.716 274.72 250.172 278.83 253.396 280.029C253.498 280.066 253.487 280.246 253.367 280.228C249.427 279.658 248.876 274.194 249.569 270.833Z" fill="#263238"/>
<path d="M252.772 267.116C258.517 266.703 258.921 278.223 253.6 278.605C248.362 278.984 247.956 267.462 252.772 267.116Z" fill="#263238"/>
<path d="M221.053 261.268C222.625 260.879 224.01 260.258 225.523 259.712C227.231 259.097 228.656 258.783 229.781 257.256C230.383 256.439 230.14 254.965 229.4 254.305C227.676 252.767 225.398 253 223.31 253.659C221.044 254.372 219.481 255.5 218.179 257.481C216.914 259.399 218.981 261.781 221.053 261.268Z" fill="#263238"/>
<path d="M257.251 261.33C255.654 261.063 254.226 260.551 252.675 260.123C250.924 259.641 249.479 259.438 248.241 258.003C247.576 257.233 247.706 255.747 248.393 255.03C249.992 253.365 252.283 253.423 254.414 253.917C256.727 254.453 258.373 255.458 259.825 257.332C261.233 259.146 259.358 261.681 257.251 261.33Z" fill="#263238"/>
<path d="M225.471 303.301C226.323 304.139 227.172 305.294 228.468 305.408C229.711 305.517 231.169 304.962 232.31 304.524C232.423 304.481 232.537 304.602 232.465 304.708C231.532 306.075 229.578 306.926 227.925 306.629C226.309 306.34 225.515 304.94 225.128 303.46C225.072 303.253 225.347 303.178 225.471 303.301Z" fill="#263238"/>
<path d="M229.265 292.623C231.252 295.731 234.183 297.436 237.36 298.063C238.777 298.354 240.269 298.408 241.732 298.281C242.02 298.276 242.308 298.245 242.568 298.188C242.829 298.157 243.065 298.128 243.351 298.071C243.768 298.012 243.998 297.668 244.07 297.274V297.248C244.068 297.117 244.068 297.012 244.038 296.883C244.038 296.883 244.038 296.883 244.038 296.855L244.033 296.542C244.118 293.793 243.868 289.611 243.868 289.611C244.871 290.118 249.984 292.441 249.908 291.005C249.244 279.112 248.505 265.886 245.331 254.191C245.247 253.8 244.646 253.888 244.679 254.279C244.865 265.736 247.064 277.081 247.435 288.584C245.802 287.957 243.141 286.797 241.703 286.821C241.312 286.932 242.332 294.895 242.194 296.126C242.194 296.126 242.195 296.178 242.17 296.257C237.549 296.83 234.073 295.421 229.601 292.301C229.336 292.099 229.052 292.338 229.265 292.623Z" fill="#263238"/>
<path d="M240.116 296.882C240.116 296.882 237.665 300.16 234.323 301.336C233.092 301.773 231.766 301.941 230.381 301.567C227.532 300.806 227.471 298.188 228.002 295.951C228.434 294.112 229.293 292.528 229.293 292.528C229.293 292.528 233.442 296.442 240.116 296.882Z" fill="#263238"/>
<path d="M234.323 301.335C233.092 301.771 231.766 301.94 230.381 301.565C227.532 300.805 227.471 298.187 228.002 295.95C231.058 296.276 234.076 298.363 234.323 301.335Z" fill="#FF9BBC"/>
<path d="M261.528 236.458C259.982 232.017 257.896 231.078 257.896 231.078C257.896 231.078 257.931 225.824 253.201 219.103C248.251 212.071 242.877 211.142 242.877 211.142C242.877 211.142 238.359 206.053 228.088 204.136C225.73 203.695 218.578 203.582 216.369 204.47C213.824 205.495 211.117 204.153 208.472 204.101C206.026 204.042 203.572 204.525 201.292 205.477C199.412 206.257 197.622 207.359 196.033 208.756C195.112 209.578 194.305 210.504 193.477 211.457C192.106 213.024 190.8 213.568 188.936 214.111C184.952 215.29 181.649 218.157 179.642 222.328C178.477 224.743 177.967 227.325 177.854 230.095C177.726 233.444 174.206 235.017 172.893 237.903C170.761 242.567 171.892 248.175 175.252 251.642C170.865 254.783 169.23 261.799 171.574 267.324C173.387 271.604 177.189 273.504 181.024 274.56C181.743 274.759 182.47 274.866 183.195 274.908C191.046 276.211 198.797 267.574 195.951 258.239C195.954 258.211 195.958 258.191 195.96 258.163C195.96 258.163 201.853 256.773 206.726 250.523C209.707 246.7 210.683 241.453 210.723 236.332C220.577 242.544 234.248 236.422 236.006 223.757C238.809 226.844 246.874 232.048 250.593 230.886C252.198 242.256 259.655 246.494 261.639 246.429C261.919 246.42 263.302 241.559 261.528 236.458ZM191.071 271.578C193.344 269.21 195.071 265.851 195.885 258.73C196.979 264.144 194.679 268.823 191.071 271.578ZM222.211 236.873C227.867 235.295 232.725 230.708 235.087 224.07C233.294 231.818 228.254 235.807 222.211 236.873Z" fill="#263238"/>
<path d="M224.164 286.651C217.778 285.873 212.465 280.849 211.606 274.18C210.591 266.293 216.179 259.053 224.063 258.037C231.95 257.019 239.19 262.608 240.206 270.492V270.494C241.22 278.376 235.633 285.618 227.747 286.635C226.532 286.794 225.33 286.793 224.164 286.651ZM227.415 259.936C226.406 259.813 225.365 259.813 224.312 259.949C217.48 260.829 212.64 267.103 213.517 273.935C214.401 280.763 220.675 285.613 227.502 284.726C234.334 283.845 239.174 277.572 238.295 270.741C237.55 264.965 232.949 260.61 227.415 259.936Z" fill="#FFC727"/>
<path d="M257.253 286.617C251.778 285.95 247.492 279.737 247.523 272.214C247.537 268.418 248.635 264.841 250.611 262.146C252.652 259.357 255.391 257.828 258.317 257.841C261.255 257.847 263.968 259.405 265.988 262.211C267.941 264.925 269.007 268.508 268.99 272.303C268.955 280.253 264.113 286.7 258.197 286.677C257.878 286.676 257.566 286.655 257.253 286.617ZM259.042 259.816C258.801 259.786 258.557 259.771 258.311 259.769C256.018 259.76 253.836 261.008 252.165 263.285C250.43 265.656 249.466 268.83 249.449 272.221C249.422 279.11 253.332 284.733 258.204 284.748C263.059 284.769 267.033 279.182 267.064 272.296C267.078 268.905 266.14 265.722 264.423 263.336C262.95 261.29 261.062 260.061 259.042 259.816Z" fill="#FFC727"/>
<path d="M239.716 272.161L238.482 270.678C240.676 268.852 245.743 266.404 249.248 270.185L247.834 271.496C244.7 268.103 239.918 271.996 239.716 272.161Z" fill="#FFC727"/>
<path d="M175.459 275.599L173.751 274.707C174.169 273.91 177.942 266.904 182.25 266.222C186.277 265.597 212.103 268.128 213.201 268.237L213.01 270.154C205.606 269.421 185.66 267.633 182.552 268.126C179.705 268.574 176.468 273.671 175.459 275.599Z" fill="#FFC727"/>
<path d="M190.417 275.058C190.417 275.058 180.315 257.131 172.291 260.574C164.268 264.019 170.725 289.208 179.343 293.407C187.96 297.606 192.004 289.704 192.004 289.704L190.417 275.058Z" fill="#AD6359"/>
<path d="M174.321 267.75C174.179 267.724 174.131 267.921 174.251 267.984C180.274 271.134 183.008 277.269 184.733 283.522C183.094 281.021 180.679 279.502 177.355 281.419C177.181 281.52 177.312 281.791 177.492 281.771C180.114 281.472 181.923 282.097 183.458 284.322C184.545 285.898 185.205 287.821 185.922 289.589C186.16 290.178 187.202 289.976 187.05 289.31C187.04 289.262 187.026 289.209 187.014 289.16C187.95 281.182 182.825 269.389 174.321 267.75Z" fill="#263238"/>
</svg>
